<svg width="40" height="40" viewBox="0 0 77 77" fill="none" xmlns="http://www.w3.org/2000/svg">
<path d="M35.2917 12.8333H12.8334C11.1315 12.8333 9.49944 13.5093 8.29608 14.7126C7.09273 15.916 6.41669 17.5481 6.41669 19.2499V64.1666C6.41669 65.8684 7.09273 67.5005 8.29608 68.7039C9.49944 69.9072 11.1315 70.5833 12.8334 70.5833H57.75C59.4518 70.5833 61.0839 69.9072 62.2873 68.7039C63.4906 67.5005 64.1667 65.8684 64.1667 64.1666V41.7083" stroke="#F1F1F1" stroke-width="4" stroke-linecap="round" stroke-linejoin="round"/>
<path d="M59.3542 8.02075C60.6305 6.74439 62.3616 6.02734 64.1667 6.02734C65.9717 6.02734 67.7028 6.74439 68.9792 8.02075C70.2555 9.2971 70.9726 11.0282 70.9726 12.8332C70.9726 14.6383 70.2555 16.3694 68.9792 17.6457L38.5 48.1249L25.6667 51.3332L28.875 38.4999L59.3542 8.02075Z" stroke="#F1F1F1" stroke-width="4" stroke-linecap="round" stroke-linejoin="round"/>
</svg>
